<svg xmlns="http://www.w3.org/2000/svg" xmlns:xlink="http://www.w3.org/1999/xlink" version="1.1" x="0px" y="0px" viewBox="0 0 100 100" enable-background="new 0 0 100 100" xml:space="preserve"><g><path d="M34,37.2h6.4c1.8,0,3.2-1.4,3.2-3.2c0-1.8-1.4-3.2-3.2-3.2H34c-1.8,0-3.2,1.4-3.2,3.2C30.8,35.7,32.2,37.2,34,37.2z"></path><path d="M34,50h25.7c1.8,0,3.2-1.4,3.2-3.2c0-1.8-1.4-3.2-3.2-3.2H34c-1.8,0-3.2,1.4-3.2,3.2C30.8,48.6,32.2,50,34,50z"></path><path d="M59.6,56.4H34c-1.8,0-3.2,1.4-3.2,3.2c0,1.8,1.4,3.2,3.2,3.2h25.7c1.8,0,3.2-1.4,3.2-3.2C62.8,57.9,61.4,56.4,59.6,56.4z"></path><path d="M53.2,69.2H34c-1.8,0-3.2,1.4-3.2,3.2c0,1.8,1.4,3.2,3.2,3.2h19.2c1.8,0,3.2-1.4,3.2-3.2C56.4,70.7,55,69.2,53.2,69.2z"></path><path d="M53.2,82.1H24.3V17.9h19.2h0c3.5,0,6.4,2.9,6.4,6.4V34c0,1.8,1.4,3.2,3.2,3.2h16v9.6c0,1.8,1.4,3.2,3.2,3.2   c1.8,0,3.2-1.4,3.2-3.2V34c0-0.8-0.3-1.6-0.9-2.3L55.5,12.5c-0.6-0.6-1.4-0.9-2.3-0.9H21.1c-1.8,0-3.2,1.4-3.2,3.2v70.6   c0,1.8,1.4,3.2,3.2,3.2h32.1c1.8,0,3.2-1.4,3.2-3.2C56.4,83.5,55,82.1,53.2,82.1z M56.4,22.5l8.3,8.3h-8.3V22.5z"></path><path d="M81.1,76.6c-1.3-1.3-3.3-1.3-4.5,0l-0.9,0.9V59.6c0-1.8-1.4-3.2-3.2-3.2c-1.8,0-3.2,1.4-3.2,3.2v17.9l-0.9-0.9   c-1.3-1.3-3.3-1.3-4.5,0c-1.3,1.3-1.3,3.3,0,4.5l6.4,6.4c1.3,1.3,3.3,1.3,4.5,0l6.4-6.4C82.4,79.9,82.4,77.8,81.1,76.6z"></path></g></svg>