<svg xmlns="http://www.w3.org/2000/svg" xmlns:xlink="http://www.w3.org/1999/xlink" version="1.1" x="0px" y="0px" viewBox="0 0 100 100" enable-background="new 0 0 100 100" xml:space="preserve"><g><path d="M43.6,30.8h-6.4c-1.8,0-3.2,1.4-3.2,3.2c0,1.8,1.4,3.2,3.2,3.2h6.4c1.8,0,3.2-1.4,3.2-3.2C46.8,32.2,45.4,30.8,43.6,30.8z"></path><path d="M62.8,43.6H37.2c-1.8,0-3.2,1.4-3.2,3.2c0,1.8,1.4,3.2,3.2,3.2h25.7c1.8,0,3.2-1.4,3.2-3.2C66,45,64.6,43.6,62.8,43.6z"></path><path d="M56.4,56.4H37.2c-1.8,0-3.2,1.4-3.2,3.2c0,1.8,1.4,3.2,3.2,3.2h19.2c1.8,0,3.2-1.4,3.2-3.2C59.6,57.9,58.2,56.4,56.4,56.4z   "></path><path d="M56.4,69.2H37.2c-1.8,0-3.2,1.4-3.2,3.2c0,1.8,1.4,3.2,3.2,3.2h19.2c1.8,0,3.2-1.4,3.2-3.2C59.6,70.7,58.2,69.2,56.4,69.2z   "></path><path d="M56.4,82.1H27.5V17.9h19.2h0c3.5,0,6.4,2.9,6.4,6.4V34c0,1.8,1.4,3.2,3.2,3.2h16v9.6c0,1.8,1.4,3.2,3.2,3.2   c1.8,0,3.2-1.4,3.2-3.2V34c0-0.8-0.3-1.6-0.9-2.3L58.7,12.5c-0.6-0.6-1.4-0.9-2.3-0.9H24.3c-1.8,0-3.2,1.4-3.2,3.2v70.6   c0,1.8,1.4,3.2,3.2,3.2h32.1c1.8,0,3.2-1.4,3.2-3.2C59.6,83.5,58.2,82.1,56.4,82.1z M59.6,22.5l8.3,8.3h-8.3V22.5z"></path><path d="M84.3,63.8l-6.4-6.4c-1.3-1.3-3.3-1.3-4.5,0L67,63.8c-1.3,1.3-1.3,3.3,0,4.5c1.3,1.3,3.3,1.3,4.5,0l0.9-0.9v17.9   c0,1.8,1.4,3.2,3.2,3.2c1.8,0,3.2-1.4,3.2-3.2V67.4l0.9,0.9c1.3,1.3,3.3,1.3,4.5,0C85.6,67.1,85.6,65,84.3,63.8z"></path></g></svg>