<svg xmlns="http://www.w3.org/2000/svg" xmlns:xlink="http://www.w3.org/1999/xlink" version="1.1" x="0px" y="0px" viewBox="0 0 100 100" enable-background="new 0 0 100 100" xml:space="preserve"><g><path d="M34.9,61.9l6.4,6.4c1.3,1.3,3.3,1.3,4.5,0c1.3-1.3,1.3-3.3,0-4.5l-4.1-4.1l4.1-4.1c1.3-1.3,1.3-3.3,0-4.5   c-1.3-1.3-3.3-1.3-4.5,0l-6.4,6.4C33.7,58.6,33.7,60.6,34.9,61.9z"></path><path d="M54.1,68.3c1.3,1.3,3.3,1.3,4.5,0l6.4-6.4c1.3-1.3,1.3-3.3,0-4.5l-6.4-6.4c-1.3-1.3-3.3-1.3-4.5,0c-1.3,1.3-1.3,3.3,0,4.5   l4.1,4.1l-4.1,4.1C52.9,65,52.9,67.1,54.1,68.3z"></path><path d="M77.9,31.7L58.7,12.5c-0.6-0.6-1.4-0.9-2.3-0.9H24.3c-1.8,0-3.2,1.4-3.2,3.2v70.6c0,1.8,1.4,3.2,3.2,3.2h51.3   c1.8,0,3.2-1.4,3.2-3.2V34C78.9,33.1,78.6,32.3,77.9,31.7z M59.6,22.5l8.3,8.3h-8.3V22.5z M46.8,17.9c3.5,0,6.4,2.9,6.4,6.4V34   c0,1.8,1.4,3.2,3.2,3.2h16v44.9H27.5V17.9H46.8L46.8,17.9z"></path></g></svg>