<svg xmlns="http://www.w3.org/2000/svg" xmlns:xlink="http://www.w3.org/1999/xlink" version="1.1" x="0px" y="0px" viewBox="0 0 100 100" enable-background="new 0 0 100 100" xml:space="preserve"><g><path d="M43.6,30.8h-6.4c-1.8,0-3.2,1.4-3.2,3.2c0,1.8,1.4,3.2,3.2,3.2h6.4c1.8,0,3.2-1.4,3.2-3.2C46.8,32.2,45.4,30.8,43.6,30.8z"></path><path d="M77.9,31.7L58.7,12.5c-0.6-0.6-1.4-0.9-2.3-0.9H24.3c-1.8,0-3.2,1.4-3.2,3.2v17.9L9.2,44.5c-1.3,1.3-1.3,3.3,0,4.5L21.1,61   v24.3c0,1.8,1.4,3.2,3.2,3.2h51.3c1.8,0,3.2-1.4,3.2-3.2V34C78.9,33.1,78.6,32.3,77.9,31.7z M59.6,22.5l8.3,8.3h-8.3V22.5z    M46.8,69.2h-8.3L35.3,66l8.3-8.3l3.2,3.2V69.2z M39,53.2l-8.3,8.3L16,46.8l8.3-8.3L39,53.2z M34.9,74.7c0.6,0.6,1.4,0.9,2.3,0.9   h25.7c1.8,0,3.2-1.4,3.2-3.2c0-1.8-1.4-3.2-3.2-3.2h-9.6v-6.4h9.6c1.8,0,3.2-1.4,3.2-3.2c0-1.8-1.4-3.2-3.2-3.2H51.3L44.9,50h17.9   c1.8,0,3.2-1.4,3.2-3.2c0-1.8-1.4-3.2-3.2-3.2H38.5L27.6,32.7l-0.1-0.1V17.9h19.2h0c3.5,0,6.4,2.9,6.4,6.4V34   c0,1.8,1.4,3.2,3.2,3.2h16v44.9H27.5V67.4L34.9,74.7z"></path></g></svg>