<svg xmlns="http://www.w3.org/2000/svg" xmlns:xlink="http://www.w3.org/1999/xlink" xml:space="preserve" version="1.1" style="shape-rendering:geometricPrecision;text-rendering:geometricPrecision;image-rendering:optimizeQuality;" viewBox="0 0 204 253" x="0px" y="0px" fill-rule="evenodd" clip-rule="evenodd"><defs><style type="text/css">
   
    .fil0 {fill:black}
   
  </style></defs><g><path class="fil0" d="M123 115l33 47c39,-3 60,41 42,70l-24 -34 -30 20 24 34c-33,8 -67,-27 -51,-63l-14 -21 5 -8 9 -1 7 -10 -5 -4c4,-8 3,-14 -3,-21l7 -9z"></path><path class="fil0" d="M87 64l22 31 -11 16c-8,-3 -15,-2 -21,5l-5 -4 -4 6 -19 -27c-39,3 -61,-40 -42,-69l23 33 30 -20 -24 -34c34,-7 67,28 51,63z"></path><g><path class="fil0" d="M64 239c-24,34 -80,-5 -56,-40l20 -29 29 -17 15 -21 -2 -8 3 -5 45 31 -4 5 -8 1 -15 21 -6 33 -21 29zm-44 -12c-7,-5 -10,-11 -8,-14l26 -37c8,-5 19,-11 28,-14l-46 65zm14 10c7,4 14,6 16,3l26 -38c1,-9 4,-22 4,-31l-46 66z"></path><path class="fil0" d="M114 144l-34 -24c4,-5 8,-9 20,-3l65 -94 1 -7 14 -10 7 5 -5 16 -6 3 -65 94c8,9 7,15 3,20z"></path></g></g></svg>