<svg xmlns="http://www.w3.org/2000/svg" data-name="Layer 1" viewBox="0 0 64 64" x="0px" y="0px"><title>manufacture-make-produce-pinch-gear</title><polygon points="57 33 49 31 45 27 39 27 35 31 27 32 24 47 30 50 28.057 45 31 37 40 33 44 33 53 37 55.943 45 54 50 60 47 57 33"></polygon><path d="M50.88342,47.01868V44.98132l-1.64483-.72583a7.72651,7.72651,0,0,0-.38483-1.23181l.90631-1.56341a9.196,9.196,0,0,0-1.17981-1.64862l-1.74036.39856a7.52524,7.52524,0,0,0-1.02032-.75477l-.16644-1.81878L43.75964,37l-1.18609,1.3761H41.30994L40.1239,37l-1.89343.6366L38.064,39.45544a7.51947,7.51947,0,0,0-1.02039.75464l-1.74036-.39856a9.19661,9.19661,0,0,0-1.17987,1.64856l.90631,1.56348a7.71362,7.71362,0,0,0-.38482,1.23187L33,44.98126v2.03736l1.64484.72583a7.73,7.73,0,0,0,.38482,1.23187l-.90631,1.56341,1.17981,1.64856,1.74036-.39856a7.51526,7.51526,0,0,0,1.02032.7547l.16645,1.81885L40.12378,55l1.1861-1.37616h1.26361L43.75952,55l1.89343-.63666.16645-1.81878a7.51668,7.51668,0,0,0,1.02038-.7547l1.74036.39862A9.19919,9.19919,0,0,0,49.76,50.53986l-.90631-1.56342a7.72094,7.72094,0,0,0,.38489-1.23187ZM41.94171,50a4,4,0,1,1,4-4A4,4,0,0,1,41.94171,50Z"></path><rect x="56" y="61" width="2" height="2"></rect><rect x="60" y="61" width="2" height="2"></rect><path d="M39,11.02478V25h6V10.97736a4.98492,4.98492,0,1,0-7.02631-6.91077L8.93359,6.002l.00013.00141A5.99165,5.99165,0,0,0,5,16.46313V51H3.18555L9,60.1377,14.81445,51H13V16.80249ZM42,5a2,2,0,1,1-2,2A2,2,0,0,1,42,5ZM37.08844,6.13055A4.94873,4.94873,0,0,0,37,7a4.94448,4.94448,0,0,0,.58,2.29083l-23.09357,5.1319A5.9855,5.9855,0,0,0,13.2041,7.72229ZM9,15a3,3,0,1,1,3-3A3,3,0,0,1,9,15Z"></path><polygon points="16 52.863 10.186 62 16 62 16 52.863"></polygon><polygon points="2 52.863 2 62 7.814 62 2 52.863"></polygon></svg>