<svg xmlns="http://www.w3.org/2000/svg" data-name="Layer 1" viewBox="0 0 64 64" x="0px" y="0px"><title>manufacture-make-produce-pinch-gear</title>
<polygon fill='blue' points="57 33 49 31 45 27 39 27 35 31 27 32 24 47 30 50 28.057 45 31 37 40 33 44 33 53 37 55.943 45 54 50 60 47 57 33"></polygon>
<rect x="56" y="61" width="2" height="2" fill='none'></rect>
<rect x="60" y="61" width="2" height="2" fill='none'></rect>
<path fill='blue' d="M39,11.02478V25h6V10.97736a4.98492,4.98492,0,1,0-7.02631-6.91077L8.93359,6.002l.00013.00141A5.99165,5.99165,0,0,0,5,16.46313V51H3.18555L9,60.1377,14.81445,51H13V16.80249ZM42,5a2,2,0,1,1-2,2A2,2,0,0,1,42,5ZM37.08844,6.13055A4.94873,4.94873,0,0,0,37,7a4.94448,4.94448,0,0,0,.58,2.29083l-23.09357,5.1319A5.9855,5.9855,0,0,0,13.2041,7.72229ZM9,15a3,3,0,1,1,3-3A3,3,0,0,1,9,15Z"></path>
<polygon fill='blue' points="16 52.863 10.186 62 16 62 16 52.863"></polygon>
<polygon fill='blue' points="2 52.863 2 62 7.814 62 2 52.863"></polygon>
</svg>