<svg xmlns="http://www.w3.org/2000/svg" xmlns:xlink="http://www.w3.org/1999/xlink" version="1.1" x="0px" y="0px" viewBox="0 0 66 66" enable-background="new 0 0 66 66" xml:space="preserve"><g><g><rect x="57.9" y="46.2" width="5.2" height="11.5"></rect><path d="M63.1,44.2v-4.4c0-0.5-0.5-1-1-1H51.6c-0.5,0-1,0.5-1,1v4.4H63.1z"></path><path d="M50.7,59.6c0.4,3,3,5.4,6.2,5.4c3.2,0,5.8-2.4,6.2-5.4H50.7z"></path><rect x="50.6" y="46.2" width="5.3" height="11.5"></rect></g><g><path d="M53.2,13.9h7.3l1.2-3.8c0-0.2,0.1-0.3,0-0.5l-1.6-7.8C60,1.3,59.6,1,59.2,1h-5.1c-0.5,0-0.9,0.3-1,0.8l-1.5,7.8    c0,0.2,0,0.4,0.1,0.6L53.2,13.9z"></path><rect x="53.7" y="15.9" width="6.5" height="20.9"></rect></g><g><g><path d="M27.3,53.6c-1.3,5.3-5.6,9.1-11.1,9.5c-0.7,0.1-1.5-0.6-1-1.5l4.2-7l-2.8-6.3L10,49l-4.1,7c-0.4,0.8-1.6,0.7-1.8-0.1     c-2.3-5-1.1-10.6,3-14.3c4.1-3.7,9.8-4.3,14.6-1.4C26.4,42.9,28.6,48.2,27.3,53.6z"></path><path d="M31.2,24c-10.4-6.2-6.6-22.1,5.5-23c0.4,0,0.8,0.2,1,0.6c0.1,0.3,0.1,0.7-0.1,1l-4.1,7l2.6,6.2l6.9-0.6l4.1-7     c0.2-0.3,0.5-0.5,0.9-0.5c0.4,0,0.7,0.2,0.9,0.6C53.7,19.1,41.6,30.2,31.2,24z"></path></g><path d="M36.1,27.7l-8.9,15c-1.2-1.7-2.7-3.2-4.6-4.3c-1.9-1.1-3.9-1.8-6-2l8.9-15c1.2,1.7,2.7,3.2,4.6,4.3    C32,26.8,34,27.5,36.1,27.7z"></path></g></g></svg>