<svg xmlns="http://www.w3.org/2000/svg" xmlns:xlink="http://www.w3.org/1999/xlink" xml:space="preserve" version="1.1" style="shape-rendering:geometricPrecision;text-rendering:geometricPrecision;image-rendering:optimizeQuality;" viewBox="0 0 331 331" x="0px" y="0px" fill-rule="evenodd" clip-rule="evenodd"><defs><style type="text/css">
   
    .fil0 {fill:black}
    .fil1 {fill:black;fill-rule:nonzero}
   
  </style></defs><g><path class="fil0" d="M206 236c-7,27 -78,29 -73,-7 3,-24 8,-47 12,-71 2,-15 -8,-10 -16,-13 -6,-3 -6,-10 1,-11 9,-2 40,-1 51,-1 6,0 9,3 9,8 1,5 0,10 -1,14 -4,23 -10,47 -12,69 -1,5 0,14 7,14 7,-1 10,-4 16,-6 4,-2 6,1 6,4z"></path><path class="fil0" d="M171 74c14,0 24,11 24,24 0,14 -11,25 -24,24 -13,0 -24,-11 -24,-24 0,-13 11,-24 24,-24z"></path><path class="fil1" d="M165 0c92,0 166,74 166,165 0,92 -74,166 -166,166 -91,0 -165,-74 -165,-166 0,-91 74,-165 165,-165zm0 25c-77,0 -140,63 -140,140 0,78 63,140 140,140 78,0 140,-62 140,-140 0,-77 -62,-140 -140,-140z"></path></g></svg>