<svg xmlns="http://www.w3.org/2000/svg" xmlns:xlink="http://www.w3.org/1999/xlink" version="1.1" x="0px" y="0px" viewBox="0 0 64 64" style="enable-background:new 0 0 64 64;" xml:space="preserve"><g><rect x="43" y="47" width="8" height="6"></rect><rect x="49" y="39" width="8" height="6"></rect><rect x="39" y="39" width="8" height="6"></rect><rect x="39.879" y="19.05" transform="matrix(0.7071 -0.7071 0.7071 0.7071 -4.2548 35.7279)" width="2.243" height="7.9"></rect><polygon points="31,53 31,47 30.923,47 19.921,53  "></polygon><path d="M11,49.219C11,51.304,12.696,53,14.781,53c0.63,0,1.256-0.16,1.811-0.462l16.793-9.159C35.614,42.162,37,39.828,37,37.288   c0-1.6-0.54-3.116-1.531-4.344L33.414,35H33c-2.206,0-4-1.794-4-4v-0.414l2.056-2.056C29.828,27.54,28.312,27,26.712,27   c-2.54,0-4.874,1.385-6.091,3.616l-9.159,16.792C11.16,47.963,11,48.589,11,49.219z M22.377,31.574   c0.924-1.693,2.784-2.695,4.694-2.561l-0.143,1.995c-1.135-0.087-2.245,0.515-2.796,1.523l-5.971,10.947l-1.756-0.957   L22.377,31.574z M15.314,44.521l1.756,0.957l-1.091,2l-1.756-0.957L15.314,44.521z"></path><path d="M41,37v-6h-3.586l-0.526,0.526c1.302,1.537,2.034,3.446,2.098,5.474H41z"></path><rect x="43" y="31" width="8" height="6"></rect><path d="M59.71,9.876c-2.826-0.529-5.057-2.759-5.586-5.586L40.414,18L46,23.586L59.71,9.876z"></path><rect x="33" y="47" width="8" height="6"></rect><path d="M61,8c0-2.757-2.243-5-5-5C56,5.757,58.243,8,61,8z"></path><path d="M31.036,31.378c0.153,0.8,0.785,1.432,1.586,1.585L39.586,26L38,24.414L31.036,31.378z"></path><path d="M34.554,45H37v-2.088C36.329,43.74,35.503,44.447,34.554,45z"></path><path d="M9,49.219C9,48.457,9.158,47.702,9.45,47H3v6h7.418C9.537,51.985,9,50.665,9,49.219z"></path><rect x="49" y="55" width="8" height="6"></rect><rect x="29" y="55" width="8" height="6"></rect><rect x="39" y="55" width="8" height="6"></rect><rect x="9" y="55" width="8" height="6"></rect><rect x="19" y="55" width="8" height="6"></rect><rect x="59" y="55" width="2" height="6"></rect><polygon points="9,39 9,45 10.497,45 13.77,39  "></polygon><rect x="53" y="47" width="8" height="6"></rect><rect x="59" y="39" width="2" height="6"></rect><rect x="3" y="55" width="4" height="6"></rect><rect x="3" y="31" width="8" height="6"></rect><polygon points="18.133,31 13,31 13,37 14.861,37  "></polygon><rect x="53" y="31" width="8" height="6"></rect><rect x="3" y="39" width="4" height="6"></rect></g></svg>