<svg xmlns="http://www.w3.org/2000/svg" xmlns:xlink="http://www.w3.org/1999/xlink" version="1.1" x="0px" y="0px" viewBox="-55 147 500 500" style="enable-background:new -55 147 500 500;" xml:space="preserve"><g><path d="M435.4,544h-70.5v-74c0-5.3-4.3-9.7-9.6-9.7h-70.5v-74c0-5.3-4.3-9.7-9.6-9.7H114.9c-5.3,0-9.6,4.3-9.6,9.7v74H34.7   c-5.3,0-9.6,4.3-9.6,9.7v74h-70.5c-5.3,0-9.6,4.3-9.6,9.7v83.7c0,5.3,4.3,9.7,9.6,9.7h160.3h160.3h160.3c5.3,0,9.6-4.3,9.6-9.7   v-83.7C445,548.3,440.7,544,435.4,544z M124.5,395.9h141v64.4H195h-70.5V395.9z M105.3,627.7h-141v-64.4h70.5h70.5V627.7z    M44.4,544v-64.4h70.5h70.5V544h-70.5H44.4z M265.5,627.7h-141v-64.4H195h70.5V627.7z M204.6,544v-64.4h70.5h70.5V544h-70.5H204.6z    M425.8,627.7h-141v-64.4h70.5h70.5V627.7z"></path><path d="M52.4,324.5L52.4,324.5l124.1,0.8c0.1,0,0.2,0,0.4,0c31.4,0,57-25.5,57.2-57.1c0.1-12.1-1.8-24-5.5-35.4l19.8-8.4   c2.3,4.3,6,7.6,10.6,9.5c2.6,1.1,5.3,1.6,8,1.6c2.8,0,5.5-0.6,8.2-1.7l76.1-32.2c10.8-4.5,15.8-17,11.3-27.8l-5.9-13.8   c-4.5-10.8-17-15.9-27.7-11.3l-76.1,32.2c-10.1,4.3-15.2,15.5-12,25.8l-19.8,8.3c-5.2-9.9-11.9-19-19.9-27l-1.1-1.1   c-11.1-11-25.7-16.9-41.3-16.6s-30,6.7-40.6,18.1l-85,90.8c-7.4,7.9-9.3,19-5.1,29C32.3,318.2,41.7,324.4,52.4,324.5z M260.4,198.6   l76.1-32.2c0.3-0.1,0.5-0.1,0.7-0.1c0.3,0,0.6,0.1,0.7,0.2c0.3,0.1,0.8,0.4,1.1,1l5.8,13.8c0.4,1-0.1,2.1-1,2.5L267.7,216   c-0.6,0.3-1.1,0.1-1.5,0c-0.3-0.1-0.8-0.4-1.1-1l-2.9-6.9l0,0l0,0l-2.9-6.9C259,200.2,259.4,199,260.4,198.6z M47.2,292.5l85-90.8   c7.1-7.6,16.7-11.8,27-12s20.1,3.7,27.4,11l1.1,1.1c6.2,6.2,11.4,13.2,15.6,20.8l-33.7,14.3c-4.9,2.1-7.2,7.7-5.1,12.6   c1.5,3.7,5.1,5.9,8.9,5.9c1.2,0,2.5-0.2,3.7-0.8l33.8-14.3c2.7,8.9,4.2,18.3,4.1,27.8c-0.1,20.9-17.1,37.9-38,37.9   c-0.1,0-0.2,0-0.2,0l-124.1-0.8l0,0c-4.4,0-6.3-3.2-6.8-4.6C45.1,299.2,44.1,295.7,47.2,292.5z"></path></g></svg>