<?xml version="1.0" encoding="iso-8859-1"?>
<svg xmlns="http://www.w3.org/2000/svg">
<!-- Constructed by RISC OS Draw -->
<g>
<path style="fill-rule:evenodd;stroke-width:3.75;stroke:#999;fill:#DBFFFF;" d="M 67.15625 118.669922 L 1.875 118.669922 L 1.875 1.875 L 118.669922 1.875 L 118.669922 74.009766 C 118.669922 80.189453  90.767578 88.472656  84.335937 87.732422 C 84.335937 94.607422  80.878906 118.669922  67.15625 118.669922 Z " />
<path style="fill-rule:evenodd;stroke-width:3.75;stroke:#999;fill:#FFF;" d="M 118.669922 74.009766 C 118.669922 87.732422  91.21875 118.630859  67.15625 118.630859 C 80.832031 118.630859  84.335937 94.607422  84.335937 87.732422 C 91.181641 87.732422  118.669922 80.890625  118.669922 74.009766 Z " />
</g>
<g>
<path style="fill-rule:evenodd;stroke:none;fill:#000;" d="M 14.035156 11.230469 C 14.367187 14.683594  14.367187 16.466797  14.035156 19.919922 L 31.783203 19.919922 L 14.035156 30.056641 C 14.367187 33.957031  14.367187 37.410156  14.035156 40.974609 L 33.115234 28.720703 C 34.001953 32.173828  35.777344 36.964844  42.65625 36.964844 C 46.648437 36.964844  52.306641 36.185547  52.306641 23.929687 L 52.306641 11.230469 L 14.035156 11.230469 Z M 34.447266 19.919922 L 48.757812 19.919922 C 48.757812 22.59375  49.644531 28.275391  41.878906 28.275391 C 35.333984 28.275391  34.447266 23.929687  34.447266 19.919922 Z " />
<path style="fill-rule:evenodd;stroke:none;fill:#000;" d="M 14.035156 43.501953 C 14.367187 45.730469  14.367187 47.066406  14.035156 48.738281 C 21.355469 49.183594  30.564453 50.074219  38.330078 51.412109 L 14.367187 63.220703 L 14.367187 65.337891 L 38.773437 77.591797 C 30.564453 78.482422  23.130859 79.375  14.035156 79.820312 C 14.367187 82.828125  14.367187 85.947266  14.035156 88.955078 L 52.306641 84.166016 C 51.863281 82.494141  51.863281 81.15625  52.306641 79.375 L 26.126953 66.673828 L 52.306641 53.974609 C 51.863281 52.302734  51.863281 50.519531  52.306641 49.183594 L 14.035156 43.501953 Z " />
</g>
<g>
<path style="fill-rule:evenodd;stroke-width:1.324219;stroke:none;fill:#090;" d="M 90.166016 38.28125 L 97.005859 35.447266 L 99.84375 28.607422 L 97.005859 21.785156 L 90.166016 18.951172 L 83.347656 21.785156 L 80.509766 28.607422 L 83.347656 35.447266 L 90.166016 38.28125 Z M 90.166016 49.332031 C 89.457031 49.332031  88.748047 49.287109  88.0625 49.220703 L 87.861328 49.201172 L 86.511719 41.935547 L 86.070312 41.802734 C 85.205078 41.537109  84.363281 41.183594  83.589844 40.761719 L 83.347656 40.605469 L 77.257812 44.792969 L 76.990234 44.591797 C 75.970703 43.751953  75.042969 42.820312  74.177734 41.783203 L 73.976562 41.515625 L 78.164062 35.447266 L 78.033203 35.205078 C 77.609375 34.40625  77.257812 33.589844  76.990234 32.724609 L 76.855469 32.261719 L 69.59375 30.931641 L 69.572266 30.732422 C 69.507812 30.046875  69.462891 29.337891  69.462891 28.607422 C 69.462891 27.898437  69.507812 27.189453  69.572266 26.503906 L 69.59375 26.302734 L 76.855469 24.953125 L 76.990234 24.509766 C 77.257812 23.646484  77.609375 22.826172  78.033203 22.029297 L 78.164062 21.785156 L 73.976562 15.695312 L 74.177734 15.453125 C 75.042969 14.410156  75.970703 13.480469  76.990234 12.638672 L 77.257812 12.417969 L 83.347656 16.605469 L 83.589844 16.470703 C 84.363281 16.050781  85.205078 15.695312  86.070312 15.431641 L 86.511719 15.296875 L 87.861328 8.035156 L 88.0625 8.013672 C 88.748047 7.945312  89.457031 7.902344  90.166016 7.902344 C 90.875 7.902344  91.582031 7.945312  92.291016 8.013672 L 92.492187 8.035156 L 93.820312 15.296875 L 94.283203 15.431641 C 95.148437 15.695312  95.96875 16.050781  96.744141 16.470703 L 96.986328 16.625 L 103.076172 12.417969 L 103.341797 12.638672 C 104.359375 13.480469  105.310547 14.410156  106.154297 15.431641 L 106.351562 15.695312 L 102.167969 21.785156 L 102.300781 22.029297 C 102.742187 22.826172  103.076172 23.646484  103.363281 24.509766 L 103.472656 24.953125 L 110.736328 26.302734 L 110.78125 26.503906 C 110.845703 27.189453  110.871094 27.898437  110.871094 28.607422 C 110.871094 29.337891  110.845703 30.021484  110.78125 30.732422 L 110.736328 30.931641 L 103.472656 32.261719 L 103.363281 32.724609 C 103.076172 33.589844  102.742187 34.40625  102.300781 35.205078 L 102.167969 35.447266 L 106.351562 41.515625 L 106.154297 41.783203 C 105.310547 42.820312  104.359375 43.751953  103.341797 44.591797 L 103.076172 44.792969 L 97.005859 40.605469 L 96.744141 40.761719 C 95.96875 41.183594  95.148437 41.537109  94.283203 41.802734 L 93.820312 41.935547 L 92.492187 49.201172 L 92.291016 49.220703 C 91.582031 49.287109  90.875 49.332031  90.166016 49.332031 Z " />
<g>
<path style="fill-rule:evenodd;stroke-width:0.585937;stroke:#004C00;fill:none;" d="M 97.005859 21.763672 L 90.166016 18.951172 L 83.347656 21.763672 L 80.509766 28.607422 L 83.347656 35.447266 M 92.492187 8.013672 L 93.820312 15.275391 M 106.154297 15.431641 L 106.351562 15.695312 L 102.167969 21.763672 L 102.320312 22.005859 C 102.742187 22.804687  103.095703 23.625  103.363281 24.486328 L 103.498047 24.953125 M 110.759766 26.28125 L 110.78125 26.478516 C 110.845703 27.167969  110.871094 27.873047  110.871094 28.607422 C 110.871094 29.3125  110.845703 30.021484  110.78125 30.710937 L 110.759766 30.908203 L 103.498047 32.261719 L 103.363281 32.703125 C 103.095703 33.564453  102.742187 34.40625  102.320312 35.181641 L 102.167969 35.425781 L 106.351562 41.515625 L 106.154297 41.783203 C 105.310547 42.800781  104.359375 43.730469  103.341797 44.572266 L 103.076172 44.792969 L 96.986328 40.605469 L 96.744141 40.740234 C 95.96875 41.160156  95.148437 41.515625  94.283203 41.783203 L 93.820312 41.914062 L 92.492187 49.175781 L 92.291016 49.201172 C 91.605469 49.265625  90.896484 49.310547  90.166016 49.310547 C 89.457031 49.310547  88.748047 49.265625  88.0625 49.201172 L 87.841797 49.175781 M 86.511719 41.914062 L 86.070312 41.783203 C 85.205078 41.515625  84.363281 41.160156  83.589844 40.740234 L 83.347656 40.605469 L 77.257812 44.792969 L 76.990234 44.591797 C 75.970703 43.730469  75.128906 42.708984  74.199219 41.783203 M 76.855469 32.261719 L 69.59375 30.908203 " />
<path style="fill-rule:evenodd;stroke-width:0.585937;stroke:#00E500;fill:none;" d="M 83.322266 35.447266 L 90.166016 38.28125 L 97.005859 35.447266 L 99.84375 28.628906 L 97.005859 21.785156 M 87.861328 49.201172 L 86.511719 41.935547 M 74.177734 41.802734 L 73.976562 41.537109 L 78.164062 35.447266 L 78.033203 35.205078 C 77.589844 34.429687  77.257812 33.609375  76.990234 32.746094 L 76.855469 32.28125 M 69.59375 30.931641 L 69.572266 30.751953 C 69.482422 30.046875  69.462891 29.337891  69.462891 28.628906 C 69.462891 27.917969  69.482422 27.208984  69.572266 26.503906 L 69.59375 26.302734 L 76.855469 24.974609 L 76.990234 24.53125 C 77.257812 23.666016  77.589844 22.826172  78.033203 22.050781 L 78.164062 21.785156 L 73.976562 15.71875 L 74.177734 15.453125 C 75.019531 14.435547  75.970703 13.480469  76.990234 12.638672 L 77.257812 12.441406 L 83.347656 16.625 L 83.589844 16.494141 C 84.363281 16.072266  85.183594 15.71875  86.070312 15.453125 L 86.511719 15.320312 L 87.861328 8.054687 L 88.039062 8.035156 C 88.748047 7.945312  89.457031 7.923828  90.166016 7.923828 C 90.875 7.923828  91.582031 7.945312  92.291016 8.035156 L 92.492187 8.054687 M 93.820312 15.320312 L 94.263672 15.453125 C 95.125 15.71875  95.96875 16.072266  96.744141 16.494141 L 96.986328 16.625 L 103.076172 12.441406 L 103.341797 12.638672 C 104.359375 13.480469  105.199219 14.521484  106.154297 15.453125 M 103.472656 24.974609 L 110.736328 26.302734 " />
</g>
</g>
</svg>
