<?xml version="1.0" encoding="iso-8859-1"?>
<svg xmlns="http://www.w3.org/2000/svg" viewBox="0 0 64 64">
<!-- Constructed by RISC OS Draw -->
<g>
<g>
<path style="fill-rule:evenodd;stroke-width:0.140625;stroke:#000;fill:#EEB;" d="M 1.054687 2.550781 L 2.558594 1.048828 C 4.064453 -0.455078  4.064453 -0.455078  6.996094 2.474609 L 15.789062 11.269531 C 18.720703 14.199219  18.720703 14.199219  17.21875 15.703125 L 15.708984 17.205078 C 14.212891 18.708984  14.212891 18.708984  11.277344 15.779297 L 2.482422 6.984375 C -0.447266 4.054687  -0.447266 4.054687  1.054687 2.550781 Z " />
<path style="fill-rule:evenodd;stroke-width:0.140625;stroke:#000;fill:#EEB;" d="M 5.751953 6.869141 L 6.882812 5.744141 C 8.007812 4.617187  8.007812 4.617187  9.134766 5.744141 L 12.519531 9.128906 C 13.644531 10.253906  13.644531 10.253906  12.519531 11.384766 L 11.390625 12.509766 C 10.259766 13.636719  10.259766 13.636719  9.134766 12.509766 L 5.751953 9.128906 C 4.626953 8  4.626953 8  5.751953 6.869141 Z " />
</g>
<g>
<g>
<path style="fill-rule:evenodd;stroke:none;fill:#000;" d="M 12.632812 15.611328 C 12.632812 15.832031  12.457031 16.007812  12.238281 16.007812 C 12.017578 16.007812  11.839844 15.832031  11.839844 15.605469 C 11.839844 15.386719  12.017578 15.210937  12.238281 15.210937 C 12.457031 15.210937  12.632812 15.392578  12.632812 15.611328 Z " />
<path style="fill-rule:evenodd;stroke:none;fill:#000;" d="M 13.482422 14.761719 C 13.482422 14.982422  13.300781 15.164062  13.082031 15.164062 C 12.861328 15.164062  12.683594 14.982422  12.683594 14.761719 C 12.683594 14.542969  12.861328 14.363281  13.082031 14.363281 C 13.300781 14.363281  13.482422 14.542969  13.482422 14.761719 Z " />
<path style="fill-rule:evenodd;stroke:none;fill:#000;" d="M 14.326172 13.917969 C 14.326172 14.138672  14.150391 14.314453  13.931641 14.314453 C 13.710937 14.314453  13.529297 14.138672  13.529297 13.917969 C 13.529297 13.699219  13.705078 13.519531  13.925781 13.519531 C 14.150391 13.519531  14.326172 13.699219  14.326172 13.917969 Z " />
<path style="fill-rule:evenodd;stroke:none;fill:#000;" d="M 15.173828 13.072266 C 15.173828 13.294922  14.994141 13.470703  14.775391 13.470703 C 14.554687 13.470703  14.373047 13.291016  14.373047 13.072266 C 14.373047 12.851562  14.554687 12.675781  14.775391 12.675781 C 14.994141 12.675781  15.173828 12.851562  15.173828 13.072266 Z " />
<path style="fill-rule:evenodd;stroke:none;fill:#000;" d="M 16.017578 12.228516 C 16.017578 12.447266  15.837891 12.626953  15.619141 12.626953 C 15.398437 12.626953  15.216797 12.447266  15.216797 12.228516 C 15.216797 12.007812  15.398437 11.826172  15.619141 11.826172 C 15.837891 11.826172  16.017578 12.007812  16.017578 12.228516 Z " />
</g>
<g>
<path style="fill-rule:evenodd;stroke:none;fill:#000;" d="M 13.482422 16.455078 C 13.482422 16.675781  13.300781 16.853516  13.082031 16.853516 C 12.861328 16.853516  12.683594 16.675781  12.683594 16.455078 C 12.683594 16.236328  12.861328 16.054687  13.082031 16.054687 C 13.300781 16.054687  13.482422 16.236328  13.482422 16.455078 Z " />
<path style="fill-rule:evenodd;stroke:none;fill:#000;" d="M 14.326172 15.611328 C 14.326172 15.832031  14.150391 16.007812  13.931641 16.007812 C 13.710937 16.007812  13.529297 15.832031  13.529297 15.611328 C 13.529297 15.392578  13.710937 15.210937  13.931641 15.210937 C 14.150391 15.210937  14.326172 15.392578  14.326172 15.611328 Z " />
<path style="fill-rule:evenodd;stroke:none;fill:#000;" d="M 15.173828 14.761719 C 15.173828 14.982422  14.994141 15.164062  14.775391 15.164062 C 14.554687 15.164062  14.373047 14.982422  14.373047 14.761719 C 14.373047 14.542969  14.554687 14.363281  14.775391 14.363281 C 14.994141 14.363281  15.173828 14.542969  15.173828 14.761719 Z " />
<path style="fill-rule:evenodd;stroke:none;fill:#000;" d="M 16.017578 13.917969 C 16.017578 14.138672  15.837891 14.320312  15.619141 14.320312 C 15.398437 14.320312  15.222656 14.138672  15.222656 13.917969 C 15.222656 13.699219  15.398437 13.519531  15.619141 13.519531 C 15.837891 13.519531  16.017578 13.699219  16.017578 13.917969 Z " />
<path style="fill-rule:evenodd;stroke:none;fill:#000;" d="M 16.861328 13.074219 C 16.861328 13.294922  16.685547 13.470703  16.464844 13.470703 C 16.246094 13.470703  16.066406 13.294922  16.066406 13.072266 C 16.066406 12.851562  16.246094 12.675781  16.464844 12.675781 C 16.685547 12.675781  16.861328 12.855469  16.861328 13.074219 Z " />
</g>
<g>
<path style="fill-rule:evenodd;stroke:none;fill:#000;" d="M 11.789062 14.761719 C 11.789062 14.982422  11.613281 15.164062  11.390625 15.164062 C 11.171875 15.164062  10.996094 14.982422  10.996094 14.761719 C 10.996094 14.542969  11.171875 14.363281  11.390625 14.363281 C 11.611328 14.363281  11.789062 14.542969  11.789062 14.761719 Z " />
<path style="fill-rule:evenodd;stroke:none;fill:#000;" d="M 12.638672 13.917969 C 12.638672 14.138672  12.457031 14.320312  12.238281 14.320312 C 12.017578 14.320312  11.839844 14.138672  11.839844 13.917969 C 11.839844 13.699219  12.017578 13.519531  12.238281 13.519531 C 12.457031 13.519531  12.638672 13.699219  12.638672 13.917969 Z " />
<path style="fill-rule:evenodd;stroke:none;fill:#000;" d="M 13.482422 13.072266 C 13.482422 13.294922  13.300781 13.470703  13.082031 13.470703 C 12.861328 13.470703  12.683594 13.291016  12.683594 13.072266 C 12.683594 12.851562  12.861328 12.675781  13.082031 12.675781 C 13.300781 12.675781  13.482422 12.851562  13.482422 13.072266 Z " />
<path style="fill-rule:evenodd;stroke:none;fill:#000;" d="M 14.326172 12.228516 C 14.326172 12.447266  14.150391 12.626953  13.931641 12.626953 C 13.710937 12.626953  13.529297 12.447266  13.529297 12.228516 C 13.529297 12.007812  13.705078 11.826172  13.925781 11.826172 C 14.150391 11.826172  14.326172 12.007812  14.326172 12.228516 Z " />
<path style="fill-rule:evenodd;stroke:none;fill:#000;" d="M 15.173828 11.384766 C 15.173828 11.603516  14.994141 11.779297  14.775391 11.779297 C 14.554687 11.779297  14.373047 11.603516  14.373047 11.384766 C 14.373047 11.164062  14.554687 10.982422  14.775391 10.982422 C 14.994141 10.982422  15.173828 11.164062  15.173828 11.384766 Z " />
</g>
<g>
<path style="fill-rule:evenodd;stroke:none;fill:#000;" d="M 3.896484 6.869141 C 3.896484 7.095703  3.720703 7.271484  3.501953 7.271484 C 3.28125 7.271484  3.103516 7.089844  3.103516 6.869141 C 3.103516 6.650391  3.279297 6.474609  3.501953 6.474609 C 3.720703 6.474609  3.896484 6.650391  3.896484 6.869141 Z " />
<path style="fill-rule:evenodd;stroke:none;fill:#000;" d="M 4.746094 6.025391 C 4.746094 6.246094  4.564453 6.427734  4.345703 6.427734 C 4.125 6.427734  3.947266 6.246094  3.947266 6.025391 C 3.947266 5.806641  4.125 5.626953  4.345703 5.626953 C 4.564453 5.626953  4.746094 5.806641  4.746094 6.025391 Z " />
<path style="fill-rule:evenodd;stroke:none;fill:#000;" d="M 5.589844 5.181641 C 5.589844 5.402344  5.414062 5.578125  5.189453 5.578125 C 4.96875 5.578125  4.792969 5.402344  4.792969 5.181641 C 4.792969 4.958984  4.96875 4.783203  5.189453 4.783203 C 5.408203 4.783203  5.589844 4.962891  5.589844 5.181641 Z " />
<path style="fill-rule:evenodd;stroke:none;fill:#000;" d="M 6.433594 4.335937 C 6.433594 4.554687  6.257812 4.734375  6.039062 4.734375 C 5.818359 4.734375  5.636719 4.554687  5.636719 4.335937 C 5.636719 4.115234  5.818359 3.939453  6.039062 3.939453 C 6.257812 3.939453  6.433594 4.115234  6.433594 4.335937 Z " />
<path style="fill-rule:evenodd;stroke:none;fill:#000;" d="M 7.28125 3.492187 C 7.28125 3.710937  7.101562 3.890625  6.882812 3.890625 C 6.662109 3.890625  6.480469 3.710937  6.480469 3.492187 C 6.480469 3.271484  6.662109 3.089844  6.882812 3.089844 C 7.101562 3.089844  7.28125 3.271484  7.28125 3.492187 Z " />
</g>
<g>
<path style="fill-rule:evenodd;stroke:none;fill:#000;" d="M 14.326172 17.298828 C 14.326172 17.519531  14.150391 17.697266  13.931641 17.697266 C 13.710937 17.697266  13.529297 17.519531  13.529297 17.298828 C 13.529297 17.080078  13.710937 16.904297  13.931641 16.904297 C 14.150391 16.904297  14.326172 17.080078  14.326172 17.298828 Z " />
<path style="fill-rule:evenodd;stroke:none;fill:#000;" d="M 15.173828 16.455078 C 15.173828 16.675781  14.994141 16.853516  14.775391 16.853516 C 14.554687 16.853516  14.373047 16.675781  14.373047 16.455078 C 14.373047 16.236328  14.554687 16.054687  14.775391 16.054687 C 14.994141 16.054687  15.173828 16.236328  15.173828 16.455078 Z " />
<path style="fill-rule:evenodd;stroke:none;fill:#000;" d="M 16.017578 15.611328 C 16.017578 15.832031  15.837891 16.007812  15.619141 16.007812 C 15.398437 16.007812  15.222656 15.832031  15.222656 15.611328 C 15.222656 15.392578  15.398437 15.210937  15.619141 15.210937 C 15.837891 15.210937  16.017578 15.392578  16.017578 15.611328 Z " />
<path style="fill-rule:evenodd;stroke:none;fill:#000;" d="M 16.861328 14.761719 C 16.861328 14.982422  16.685547 15.164062  16.464844 15.164062 C 16.246094 15.164062  16.066406 14.982422  16.066406 14.761719 C 16.066406 14.542969  16.246094 14.367187  16.464844 14.367187 C 16.685547 14.367187  16.861328 14.542969  16.861328 14.761719 Z " />
<path style="fill-rule:evenodd;stroke:none;fill:#000;" d="M 17.710937 13.917969 C 17.710937 14.138672  17.529297 14.320312  17.308594 14.320312 C 17.089844 14.320312  16.910156 14.138672  16.910156 13.917969 C 16.910156 13.699219  17.089844 13.519531  17.308594 13.519531 C 17.529297 13.519531  17.710937 13.699219  17.710937 13.917969 Z " />
</g>
<g>
<path style="fill-rule:evenodd;stroke:none;fill:#000;" d="M 3.052734 6.025391 C 3.052734 6.246094  2.875 6.427734  2.654297 6.427734 C 2.435547 6.427734  2.253906 6.246094  2.253906 6.025391 C 2.253906 5.806641  2.435547 5.626953  2.654297 5.626953 C 2.875 5.626953  3.052734 5.806641  3.052734 6.025391 Z " />
<path style="fill-rule:evenodd;stroke:none;fill:#000;" d="M 3.896484 5.181641 C 3.896484 5.402344  3.720703 5.578125  3.501953 5.578125 C 3.279297 5.578125  3.103516 5.402344  3.103516 5.181641 C 3.103516 4.958984  3.279297 4.783203  3.501953 4.783203 C 3.720703 4.783203  3.896484 4.958984  3.896484 5.181641 Z " />
<path style="fill-rule:evenodd;stroke:none;fill:#000;" d="M 4.746094 4.335937 C 4.746094 4.554687  4.564453 4.734375  4.345703 4.734375 C 4.125 4.734375  3.947266 4.554687  3.947266 4.335937 C 3.947266 4.115234  4.125 3.933594  4.345703 3.933594 C 4.564453 3.933594  4.746094 4.115234  4.746094 4.335937 Z " />
<path style="fill-rule:evenodd;stroke:none;fill:#000;" d="M 5.589844 3.492187 C 5.589844 3.710937  5.408203 3.890625  5.189453 3.890625 C 4.96875 3.890625  4.792969 3.710937  4.792969 3.492187 C 4.792969 3.271484  4.96875 3.089844  5.189453 3.089844 C 5.408203 3.089844  5.589844 3.271484  5.589844 3.492187 Z " />
<path style="fill-rule:evenodd;stroke:none;fill:#000;" d="M 6.433594 2.648437 C 6.433594 2.867187  6.257812 3.042969  6.039062 3.042969 C 5.818359 3.042969  5.636719 2.861328  5.636719 2.642578 C 5.636719 2.421875  5.8125 2.246094  6.039062 2.246094 C 6.257812 2.246094  6.433594 2.421875  6.433594 2.648437 Z " />
</g>
<g>
<path style="fill-rule:evenodd;stroke:none;fill:#000;" d="M 2.208984 5.181641 C 2.208984 5.402344  2.03125 5.578125  1.810547 5.578125 C 1.591797 5.578125  1.410156 5.402344  1.410156 5.181641 C 1.410156 4.958984  1.591797 4.783203  1.810547 4.783203 C 2.03125 4.783203  2.208984 4.962891  2.208984 5.181641 Z " />
<path style="fill-rule:evenodd;stroke:none;fill:#000;" d="M 3.052734 4.335937 C 3.052734 4.554687  2.875 4.734375  2.654297 4.734375 C 2.435547 4.734375  2.253906 4.554687  2.253906 4.335937 C 2.253906 4.115234  2.435547 3.933594  2.654297 3.933594 C 2.875 3.933594  3.052734 4.115234  3.052734 4.335937 Z " />
<path style="fill-rule:evenodd;stroke:none;fill:#000;" d="M 3.896484 3.492187 C 3.896484 3.710937  3.720703 3.890625  3.501953 3.890625 C 3.28125 3.890625  3.103516 3.710937  3.103516 3.492187 C 3.103516 3.271484  3.279297 3.089844  3.501953 3.089844 C 3.720703 3.089844  3.896484 3.271484  3.896484 3.492187 Z " />
<path style="fill-rule:evenodd;stroke:none;fill:#000;" d="M 4.746094 2.648437 C 4.746094 2.867187  4.564453 3.042969  4.345703 3.042969 C 4.125 3.042969  3.947266 2.861328  3.947266 2.642578 C 3.947266 2.421875  4.125 2.246094  4.345703 2.246094 C 4.564453 2.246094  4.746094 2.421875  4.746094 2.648437 Z " />
<path style="fill-rule:evenodd;stroke:none;fill:#000;" d="M 5.589844 1.798828 C 5.589844 2.017578  5.408203 2.199219  5.189453 2.199219 C 4.96875 2.199219  4.792969 2.017578  4.792969 1.798828 C 4.792969 1.578125  4.96875 1.400391  5.189453 1.400391 C 5.408203 1.400391  5.589844 1.578125  5.589844 1.798828 Z " />
</g>
<g>
<path style="fill-rule:evenodd;stroke:none;fill:#000;" d="M 1.363281 4.335937 C 1.363281 4.554687  1.181641 4.734375  0.960937 4.734375 C 0.742187 4.734375  0.566406 4.554687  0.566406 4.335937 C 0.566406 4.115234  0.742187 3.939453  0.960937 3.939453 C 1.181641 3.939453  1.363281 4.115234  1.363281 4.335937 Z " />
<path style="fill-rule:evenodd;stroke:none;fill:#000;" d="M 2.208984 3.492187 C 2.208984 3.710937  2.03125 3.890625  1.810547 3.890625 C 1.591797 3.890625  1.410156 3.710937  1.410156 3.492187 C 1.410156 3.271484  1.591797 3.089844  1.810547 3.089844 C 2.03125 3.089844  2.208984 3.271484  2.208984 3.492187 Z " />
<path style="fill-rule:evenodd;stroke:none;fill:#000;" d="M 3.052734 2.642578 C 3.052734 2.861328  2.875 3.042969  2.654297 3.042969 C 2.435547 3.042969  2.259766 2.861328  2.259766 2.642578 C 2.259766 2.421875  2.435547 2.246094  2.654297 2.246094 C 2.875 2.246094  3.052734 2.421875  3.052734 2.642578 Z " />
<path style="fill-rule:evenodd;stroke:none;fill:#000;" d="M 3.896484 1.798828 C 3.896484 2.017578  3.720703 2.199219  3.501953 2.199219 C 3.279297 2.199219  3.103516 2.017578  3.103516 1.798828 C 3.103516 1.578125  3.279297 1.400391  3.501953 1.400391 C 3.720703 1.400391  3.896484 1.578125  3.896484 1.798828 Z " />
<path style="fill-rule:evenodd;stroke:none;fill:#000;" d="M 4.746094 0.955078 C 4.746094 1.173828  4.564453 1.349609  4.345703 1.349609 C 4.125 1.349609  3.947266 1.173828  3.947266 0.955078 C 3.947266 0.734375  4.125 0.556641  4.345703 0.556641 C 4.564453 0.556641  4.746094 0.734375  4.746094 0.955078 Z " />
</g>
</g>
</g>
</svg>
