<?xml version="1.0" encoding="iso-8859-1"?>
<!DOCTYPE svg PUBLIC "-//W3C//DTD SVG 1.0//EN" "http://www.w3.org/TR/2001/REC-SVG-20010904/DTD/svg10.dtd">
<svg viewBox="-0.5 -0.5 19 19">
<!-- Constructed by RISC OS Draw -->
<g>
<g>
<path style="fill-rule:evenodd;stroke-width:0.3;stroke:#000;fill:none;" d="M 1.054687 2.550781 L 2.558594 1.048828 C 4.064453 -0.455078  4.064453 -0.455078  6.996094 2.474609 L 15.789062 11.269531 C 18.720703 14.199219  18.720703 14.199219  17.21875 15.703125 L 15.708984 17.205078 C 14.212891 18.708984  14.212891 18.708984  11.277344 15.779297 L 2.482422 6.984375 C -0.447266 4.054687  -0.447266 4.054687  1.054687 2.550781 Z " />
<path style="fill-rule:evenodd;stroke-width:0.3;stroke:#000;fill:none;" d="M 5.751953 6.869141 L 6.882812 5.744141 C 8.007812 4.617187  8.007812 4.617187  9.134766 5.744141 L 12.519531 9.128906 C 13.644531 10.253906  13.644531 10.253906  12.519531 11.384766 L 11.390625 12.509766 C 10.259766 13.636719  10.259766 13.636719  9.134766 12.509766 L 5.751953 9.128906 C 4.626953 8  4.626953 8  5.751953 6.869141 Z " />
</g>
<g>
<g>
<path style="fill-rule:evenodd;stroke:black;stroke-width:0.1;fill:#000;" d="M 13.482422 14.761719 C 13.482422 14.982422  13.300781 15.164062  13.082031 15.164062 C 12.861328 15.164062  12.683594 14.982422  12.683594 14.761719 C 12.683594 14.542969  12.861328 14.363281  13.082031 14.363281 C 13.300781 14.363281  13.482422 14.542969  13.482422 14.761719 Z " />
<path style="fill-rule:evenodd;stroke:black;stroke-width:0.1;fill:#000;" d="M 15.173828 13.072266 C 15.173828 13.294922  14.994141 13.470703  14.775391 13.470703 C 14.554687 13.470703  14.373047 13.291016  14.373047 13.072266 C 14.373047 12.851562  14.554687 12.675781  14.775391 12.675781 C 14.994141 12.675781  15.173828 12.851562  15.173828 13.072266 Z " />
</g>
<g>
<path style="fill-rule:evenodd;stroke:black;stroke-width:0.1;fill:#000;" d="M 13.482422 16.455078 C 13.482422 16.675781  13.300781 16.853516  13.082031 16.853516 C 12.861328 16.853516  12.683594 16.675781  12.683594 16.455078 C 12.683594 16.236328  12.861328 16.054687  13.082031 16.054687 C 13.300781 16.054687  13.482422 16.236328  13.482422 16.455078 Z " />
<path style="fill-rule:evenodd;stroke:black;stroke-width:0.1;fill:#000;" d="M 15.173828 14.761719 C 15.173828 14.982422  14.994141 15.164062  14.775391 15.164062 C 14.554687 15.164062  14.373047 14.982422  14.373047 14.761719 C 14.373047 14.542969  14.554687 14.363281  14.775391 14.363281 C 14.994141 14.363281  15.173828 14.542969  15.173828 14.761719 Z " />
<path style="fill-rule:evenodd;stroke:black;stroke-width:0.1;fill:#000;" d="M 16.861328 13.074219 C 16.861328 13.294922  16.685547 13.470703  16.464844 13.470703 C 16.246094 13.470703  16.066406 13.294922  16.066406 13.072266 C 16.066406 12.851562  16.246094 12.675781  16.464844 12.675781 C 16.685547 12.675781  16.861328 12.855469  16.861328 13.074219 Z " />
</g>
<g>
<path style="fill-rule:evenodd;stroke:black;stroke-width:0.1;fill:#000;" d="M 11.789062 14.761719 C 11.789062 14.982422  11.613281 15.164062  11.390625 15.164062 C 11.171875 15.164062  10.996094 14.982422  10.996094 14.761719 C 10.996094 14.542969  11.171875 14.363281  11.390625 14.363281 C 11.611328 14.363281  11.789062 14.542969  11.789062 14.761719 Z " />
<path style="fill-rule:evenodd;stroke:black;stroke-width:0.1;fill:#000;" d="M 13.482422 13.072266 C 13.482422 13.294922  13.300781 13.470703  13.082031 13.470703 C 12.861328 13.470703  12.683594 13.291016  12.683594 13.072266 C 12.683594 12.851562  12.861328 12.675781  13.082031 12.675781 C 13.300781 12.675781  13.482422 12.851562  13.482422 13.072266 Z " />
<path style="fill-rule:evenodd;stroke:black;stroke-width:0.1;fill:#000;" d="M 15.173828 11.384766 C 15.173828 11.603516  14.994141 11.779297  14.775391 11.779297 C 14.554687 11.779297  14.373047 11.603516  14.373047 11.384766 C 14.373047 11.164062  14.554687 10.982422  14.775391 10.982422 C 14.994141 10.982422  15.173828 11.164062  15.173828 11.384766 Z " />
</g>
<g>
<path style="fill-rule:evenodd;stroke:black;stroke-width:0.1;fill:#000;" d="M 4.746094 6.025391 C 4.746094 6.246094  4.564453 6.427734  4.345703 6.427734 C 4.125 6.427734  3.947266 6.246094  3.947266 6.025391 C 3.947266 5.806641  4.125 5.626953  4.345703 5.626953 C 4.564453 5.626953  4.746094 5.806641  4.746094 6.025391 Z " />
<path style="fill-rule:evenodd;stroke:black;stroke-width:0.1;fill:#000;" d="M 6.433594 4.335937 C 6.433594 4.554687  6.257812 4.734375  6.039062 4.734375 C 5.818359 4.734375  5.636719 4.554687  5.636719 4.335937 C 5.636719 4.115234  5.818359 3.939453  6.039062 3.939453 C 6.257812 3.939453  6.433594 4.115234  6.433594 4.335937 Z " />
</g>
<g>
<path style="fill-rule:evenodd;stroke:black;stroke-width:0.1;fill:#000;" d="M 15.173828 16.455078 C 15.173828 16.675781  14.994141 16.853516  14.775391 16.853516 C 14.554687 16.853516  14.373047 16.675781  14.373047 16.455078 C 14.373047 16.236328  14.554687 16.054687  14.775391 16.054687 C 14.994141 16.054687  15.173828 16.236328  15.173828 16.455078 Z " />
<path style="fill-rule:evenodd;stroke:black;stroke-width:0.1;fill:#000;" d="M 16.861328 14.761719 C 16.861328 14.982422  16.685547 15.164062  16.464844 15.164062 C 16.246094 15.164062  16.066406 14.982422  16.066406 14.761719 C 16.066406 14.542969  16.246094 14.367187  16.464844 14.367187 C 16.685547 14.367187  16.861328 14.542969  16.861328 14.761719 Z " />
</g>
<g>
<path style="fill-rule:evenodd;stroke:black;stroke-width:0.1;fill:#000;" d="M 3.052734 6.025391 C 3.052734 6.246094  2.875 6.427734  2.654297 6.427734 C 2.435547 6.427734  2.253906 6.246094  2.253906 6.025391 C 2.253906 5.806641  2.435547 5.626953  2.654297 5.626953 C 2.875 5.626953  3.052734 5.806641  3.052734 6.025391 Z " />
<path style="fill-rule:evenodd;stroke:black;stroke-width:0.1;fill:#000;" d="M 4.746094 4.335937 C 4.746094 4.554687  4.564453 4.734375  4.345703 4.734375 C 4.125 4.734375  3.947266 4.554687  3.947266 4.335937 C 3.947266 4.115234  4.125 3.933594  4.345703 3.933594 C 4.564453 3.933594  4.746094 4.115234  4.746094 4.335937 Z " />
<path style="fill-rule:evenodd;stroke:black;stroke-width:0.1;fill:#000;" d="M 6.433594 2.648437 C 6.433594 2.867187  6.257812 3.042969  6.039062 3.042969 C 5.818359 3.042969  5.636719 2.861328  5.636719 2.642578 C 5.636719 2.421875  5.8125 2.246094  6.039062 2.246094 C 6.257812 2.246094  6.433594 2.421875  6.433594 2.648437 Z " />
</g>
<g>
<path style="fill-rule:evenodd;stroke:black;stroke-width:0.1;fill:#000;" d="M 3.052734 4.335937 C 3.052734 4.554687  2.875 4.734375  2.654297 4.734375 C 2.435547 4.734375  2.253906 4.554687  2.253906 4.335937 C 2.253906 4.115234  2.435547 3.933594  2.654297 3.933594 C 2.875 3.933594  3.052734 4.115234  3.052734 4.335937 Z " />
<path style="fill-rule:evenodd;stroke:black;stroke-width:0.1;fill:#000;" d="M 4.746094 2.648437 C 4.746094 2.867187  4.564453 3.042969  4.345703 3.042969 C 4.125 3.042969  3.947266 2.861328  3.947266 2.642578 C 3.947266 2.421875  4.125 2.246094  4.345703 2.246094 C 4.564453 2.246094  4.746094 2.421875  4.746094 2.648437 Z " />
</g>
<g>
<path style="fill-rule:evenodd;stroke:black;stroke-width:0.1;fill:#000;" d="M 1.363281 4.335937 C 1.363281 4.554687  1.181641 4.734375  0.960937 4.734375 C 0.742187 4.734375  0.566406 4.554687  0.566406 4.335937 C 0.566406 4.115234  0.742187 3.939453  0.960937 3.939453 C 1.181641 3.939453  1.363281 4.115234  1.363281 4.335937 Z " />
<path style="fill-rule:evenodd;stroke:black;stroke-width:0.1;fill:#000;" d="M 3.052734 2.642578 C 3.052734 2.861328  2.875 3.042969  2.654297 3.042969 C 2.435547 3.042969  2.259766 2.861328  2.259766 2.642578 C 2.259766 2.421875  2.435547 2.246094  2.654297 2.246094 C 2.875 2.246094  3.052734 2.421875  3.052734 2.642578 Z " />
<path style="fill-rule:evenodd;stroke:black;stroke-width:0.1;fill:#000;" d="M 4.746094 0.955078 C 4.746094 1.173828  4.564453 1.349609  4.345703 1.349609 C 4.125 1.349609  3.947266 1.173828  3.947266 0.955078 C 3.947266 0.734375  4.125 0.556641  4.345703 0.556641 C 4.564453 0.556641  4.746094 0.734375  4.746094 0.955078 Z " />
</g>
</g>
</g>
</svg>
